<?xml version="1.0" encoding="UTF-8"?>
<!--Generator: Apple Native CoreSVG 232.5-->
<!DOCTYPE svg
PUBLIC "-//W3C//DTD SVG 1.1//EN"
       "http://www.w3.org/Graphics/SVG/1.1/DTD/svg11.dtd">
<svg version="1.1" xmlns="http://www.w3.org/2000/svg" xmlns:xlink="http://www.w3.org/1999/xlink" width="22.9102" height="22.9199">
 <g>
  <path d="M5.42969 11.4648C5.42969 10.8984 5.82031 10.5176 6.37695 10.5176L10.5078 10.5176L10.5078 6.37695C10.5078 5.83008 10.8887 5.42969 11.4258 5.42969C11.9824 5.42969 12.373 5.82031 12.373 6.37695L12.373 10.5176L16.5137 10.5176C17.0703 10.5176 17.4609 10.8984 17.4609 11.4648C17.4609 12.002 17.0605 12.373 16.5137 12.373L12.373 12.373L12.373 16.5234C12.373 17.0703 11.9824 17.4609 11.4258 17.4609C10.8887 17.4609 10.5078 17.0605 10.5078 16.5234L10.5078 12.373L6.37695 12.373C5.83008 12.373 5.42969 12.002 5.42969 11.4648Z"/>
 </g>
</svg>
